# xmcd CD database file
#
# Track frame offsets:
#	150
#	20160
#	37427
#	54040
#	78142
#	97140
#	123247
#	143005
#	159617
#	182805
#	202477
#	217890
#	238232
#	253157
#
# Disc length: 3721 seconds
#
# Revision: 0
# Processed by: cddbd v1.5.1PL0 Copyright (c) Steve Scherf et al.
# Submitted via: CDex 1.60beta1
#
DISCID=d00e870e
DTITLE=Peter Noonan - Tis The Season
DYEAR=0
DGENRE=New Age
TTITLE0=O Come All Ye Faithful
TTITLE1=The Christmas Song
TTITLE2=Let It Snow
TTITLE3=Jesu, Joy Of Man's Desiring
TTITLE4=The First Noel
TTITLE5=My Favorite Things
TTITLE6=Do You Hear What I Hear
TTITLE7=God Rest Ye Merry Gentlemen
TTITLE8=O Christmas Tree
TTITLE9=We Three Kings Of Orient Are
TTITLE10=Joy To The World
TTITLE11=Christmas Time Is Here
TTITLE12=White Christmas
TTITLE13=Silent Night, Holy Night
EXTD=YEAR: 0
EXTT0=
EXTT1=
EXTT2=
EXTT3=
EXTT4=
EXTT5=
EXTT6=
EXTT7=
EXTT8=
EXTT9=
EXTT10=
EXTT11=
EXTT12=
EXTT13=
PLAYORDER=
